<?xml version="1.0" encoding="utf-8"?>
<!-- Generator: Adobe Illustrator 20.0.0, SVG Export Plug-In . SVG Version: 6.00 Build 0)  -->
<!DOCTYPE svg PUBLIC "-//W3C//DTD SVG 1.1//EN" "http://www.w3.org/Graphics/SVG/1.1/DTD/svg11.dtd">
<svg version="1.1" xmlns="http://www.w3.org/2000/svg" xmlns:xlink="http://www.w3.org/1999/xlink" x="0px" y="0px"
	 viewBox="0 0 250 250" style="enable-background:new 0 0 250 250;" xml:space="preserve">
<style type="text/css">
	.st0{fill:#FF9900;}
	.st1{fill:#282A2F;}
	.st2{fill:#FFFFFF;stroke:#FF9900;stroke-miterlimit:10;}
	.st3{fill:#33CC99;}
	.st4{fill:#282A2F;stroke:#FF9900;stroke-width:2.6629;stroke-miterlimit:10;}
</style>
<g id="Layer_1">
</g>
<g id="Dictionary">
	<g>
		<g>
			<g>
				<path class="st0" d="M151.4,47.2c0,6.6-5.4,12-12,12c-6.6,0-12-5.4-12-12s5.4-12,12-12S151.4,40.6,151.4,47.2z"/>
				<path class="st0" d="M191.9,87.7c-6,0-11.6,2.2-15.8,5.9c0-0.2,0-0.5,0-0.7c0-10.1-8.2-18.3-18.3-18.3
					c-10.1,0-18.3,8.2-18.3,18.3c0,0,0,0,0,0c0,10.1,8.2,18.3,18.3,18.3c3.8,0,7.4-1.2,10.3-3.2c-0.2,1.2-0.3,2.5-0.3,3.7
					c0,13.3,10.8,24.1,24.1,24.1c13.3,0,24.1-10.8,24.1-24.1C215.9,98.5,205.2,87.7,191.9,87.7z"/>
				<path class="st0" d="M132.4,103.1c1.9-1.4,3.1-3.6,3.1-6.1c0-4.2-3.4-7.7-7.7-7.7s-7.7,3.4-7.7,7.7c0,0.6,0.1,1.1,0.2,1.7
					c-8.9,0.3-16.1,7.7-16.1,16.7c0,0,0,0,0,0c0,9.2,7.5,16.7,16.7,16.7c9.2,0,16.7-7.5,16.7-16.7c0,0,0,0,0,0
					C137.7,110.5,135.7,106.2,132.4,103.1z"/>
				<path class="st0" d="M167.2,124.1c0,6.2-5,11.2-11.2,11.2c-6.2,0-11.2-5-11.2-11.2c0-6.2,5-11.2,11.2-11.2
					C162.2,112.9,167.2,117.9,167.2,124.1z"/>
				<polygon class="st0" points="223.9,151.3 98.7,151.3 98.7,28.3 89.2,28.3 89.2,151.3 75.1,151.3 75.1,160.9 89.2,160.9 
					89.2,174.4 98.7,174.4 98.7,160.9 223.9,160.9 				"/>
			</g>
			<g id="treatment_options">
				<circle class="st4" cx="114.9" cy="131.9" r="59.3"/>
				<g>
					<path class="st3" d="M121.5,139.1c0,0,0.7,16,0.2,21.4c-0.3,2.7-13.4,2.7-13.6,0c-0.4-5.4-0.2-21.4-0.2-21.4s-16.8,0.2-21.9,0
						c-2.5-0.1-2.5-13.2,0-13.1c5.9,0.2,21.9,0,21.9,0s-0.1-15.9,0-22.6c0-2.7,13.7-2.7,13.6,0c-0.3,9,0,22.6,0,22.6
						s16.9,0.2,22.2,0c2.5-0.1,2.5,13,0,13.1C138.4,139.3,121.5,139.1,121.5,139.1z"/>
				</g>
			</g>
		</g>
		<rect x="190.7" y="151.3" class="st0" width="59.1" height="9.6"/>
	</g>
</g>
</svg>
