<?xml version="1.0" encoding="utf-8"?>
<!-- Generator: Adobe Illustrator 20.0.0, SVG Export Plug-In . SVG Version: 6.00 Build 0)  -->
<!DOCTYPE svg PUBLIC "-//W3C//DTD SVG 1.1//EN" "http://www.w3.org/Graphics/SVG/1.1/DTD/svg11.dtd">
<svg version="1.1" xmlns="http://www.w3.org/2000/svg" xmlns:xlink="http://www.w3.org/1999/xlink" x="0px" y="0px"
	 viewBox="0 0 250 250" style="enable-background:new 0 0 250 250;" xml:space="preserve">
<style type="text/css">
	.st0{fill:#FF9900;}
	.st1{fill:#282A2F;}
	.st2{fill:#FFFFFF;stroke:#FF9900;stroke-miterlimit:10;}
	.st3{fill:#33CC99;}
	.st4{fill:#282A2F;stroke:#FF9900;stroke-width:2.6629;stroke-miterlimit:10;}
</style>
<g id="Layer_1">
</g>
<g id="Dictionary">
	<g>
		<g>
			<g>
				<path class="st0" d="M216.8,123.3c0,48.2-39.2,87.4-87.4,87.4s-87.4-39.2-87.4-87.4c0-4.6,0.4-9.2,1.1-13.7
					c0.3-1.6,1.8-2.7,3.4-2.4c1.6,0.3,2.7,1.7,2.4,3.3c-0.7,4.2-1,8.5-1,12.8c0,44.9,36.6,81.5,81.5,81.5
					c44.9,0,81.5-36.5,81.5-81.5c0-42.4-32.6-77.4-74.1-81.2l6.1,6.1c1.1,1.1,1.1,3,0,4.2c-0.6,0.6-1.3,0.9-2.1,0.9
					s-1.5-0.3-2.1-0.9L127.4,41c-0.1-0.1-0.2-0.2-0.3-0.3c-0.1-0.1-0.1-0.2-0.2-0.3c-0.1-0.1-0.1-0.2-0.2-0.4
					c-0.1-0.2-0.1-0.3-0.1-0.5c0,0,0,0,0,0c0-0.2-0.1-0.4-0.1-0.6c0-0.2,0-0.4,0.1-0.6c0,0,0,0,0,0c0-0.2,0.1-0.4,0.2-0.5
					c0-0.1,0.1-0.2,0.2-0.4c0-0.1,0.1-0.1,0.1-0.2c0,0,0,0,0,0c0.1-0.1,0.2-0.3,0.3-0.4l11.4-11.4c1.1-1.1,3-1.1,4.2,0
					c1.1,1.1,1.1,3,0,4.2l-6.7,6.7C181.3,39.7,216.8,77.5,216.8,123.3z"/>
			</g>
			<g>
				<path class="st0" d="M185.3,89c-0.1-0.2-0.2-0.3-0.3-0.5c0.1,0.1,0.1,0.2,0.2,0.3C185.2,88.8,185.3,88.9,185.3,89z"/>
			</g>
			<g>
				<path class="st0" d="M73.1,156.7c-0.1-0.1-0.1-0.2-0.2-0.3c0,0-0.1-0.1-0.1-0.1C72.9,156.4,73,156.6,73.1,156.7z"/>
				<path class="st0" d="M185.3,89c-0.1-0.2-0.2-0.3-0.3-0.5c0,0,0,0,0,0c-11.6-18.4-32.2-30.7-55.5-30.7c-32.6,0-59.8,24-64.7,55.2
					c-0.5,3.4-0.8,6.8-0.8,10.3c0,1.7,0.1,3.5,0.2,5.2c0,0,0,0,0,0c0.1,0.9,0.1,1.7,0.3,2.6c1.1,9.1,4,17.6,8.4,25.1
					c0.1,0.1,0.2,0.3,0.3,0.5c0,0,0,0,0,0c8.7,14.7,23.1,25.7,40,30.1c0,0,0.1,0,0.1,0c0.1,0,0.2,0,0.4,0.1c5.1,1.3,10.4,2,15.9,2
					c36.1,0,65.6-29.4,65.6-65.6C195,110.8,191.4,99,185.3,89z M129.5,63.7c20.3,0,38.3,10.2,49.1,25.8l-15.8,9.8
					c-7.5-10.3-19.6-17-33.3-17c-19.5,0-35.9,13.6-40.1,31.8L71,111C76.7,84,100.8,63.7,129.5,63.7z M94.3,126.8
					C94.3,126.8,94.3,126.8,94.3,126.8c-0.1-1.2-0.2-2.3-0.2-3.5c0-1.9,0.1-3.7,0.4-5.6c2.7-16.8,17.3-29.8,34.9-29.8
					c12.6,0,23.8,6.7,30,16.7c3.4,5.4,5.3,11.8,5.3,18.6c0,19.5-15.8,35.3-35.3,35.3c-18.2,0-33.3-13.9-35.1-31.6
					C94.3,126.9,94.3,126.9,94.3,126.8z M69.8,123.3c0-2.2,0.1-4.3,0.4-6.5l18.3,2.9c-0.1,1.2-0.2,2.3-0.2,3.6c0,0.4,0,0.8,0,1.2
					l-18.5,1.8C69.8,125.3,69.8,124.3,69.8,123.3z M70.4,132.2l18.5-1.8c0.7,4,1.9,7.7,3.6,11.2l-16,9.4
					C73.5,145.1,71.4,138.8,70.4,132.2z M111.9,180.4c-13.4-4.1-24.8-12.9-32.4-24.4l16-9.4c5,7.3,12.3,12.9,20.9,15.8L111.9,180.4z
					 M129.5,183c-4.1,0-8.1-0.4-11.9-1.2l4.6-18c2.4,0.4,4.8,0.7,7.3,0.7c22.7,0,41.2-18.5,41.2-41.2c0-6.9-1.7-13.4-4.7-19.1
					l15.8-9.8c4.8,8.6,7.5,18.4,7.5,28.9C189.1,156.2,162.4,183,129.5,183z"/>
			</g>
			<g>
				<path class="st0" d="M64.4,131.1c-0.3-0.4-0.4-0.8-0.5-1.3c0-0.5,0-0.9,0.2-1.4C64.2,129.4,64.2,130.3,64.4,131.1z"/>
			</g>
		</g>
		<g id="General_Questions">
			<g>
				<circle class="st1" cx="130.5" cy="124.8" r="51.8"/>
				<path class="st0" d="M130.5,177.7c-29.2,0-53-23.8-53-53c0-29.2,23.8-53,53-53s53,23.8,53,53
					C183.5,153.9,159.7,177.7,130.5,177.7z M130.5,74.1c-27.9,0-50.6,22.7-50.6,50.6c0,27.9,22.7,50.6,50.6,50.6
					s50.6-22.7,50.6-50.6C181.1,96.8,158.4,74.1,130.5,74.1z"/>
			</g>
			<g>
				<g>
					<path class="st3" d="M127.6,135c-0.6-1.2-0.9-3-0.9-5.2c0-1.5,0.2-2.9,0.7-4.1c0.4-1.2,1-2.3,1.7-3.3c0.7-1,1.4-2,2.2-2.9
						c0.8-0.9,1.5-1.9,2.2-2.9c0.7-1,1.2-2.1,1.7-3.3c0.4-1.2,0.7-2.6,0.7-4.1c0-2.2-0.5-4-1.6-5.2c-1.1-1.2-3-1.9-5.8-1.9
						c-0.7,0-1.5,0.1-2.4,0.4c-0.9,0.3-1.4,0.8-1.7,1.6v0.5c0,0.2,0.1,0.4,0.2,0.5c0.1,0.1,0.2,0.3,0.2,0.5c0,2.6-1.1,3.9-3.3,3.9
						c-1.8,0-2.6-1.3-2.6-3.9c0-1.2,0.3-2.3,0.8-3.3c0.5-0.9,1.2-1.7,2.1-2.3c0.9-0.6,2-1.1,3.2-1.4c1.2-0.3,2.5-0.4,3.9-0.4
						c2,0,3.8,0.2,5.5,0.7c1.6,0.5,3.1,1.2,4.3,2.1c1.2,0.9,2.1,2.1,2.8,3.4c0.7,1.4,1,2.9,1,4.7c0,2.1-0.3,3.9-0.9,5.4
						c-0.6,1.5-1.4,2.8-2.3,4c-0.9,1.2-2,2.2-3.1,3.1c-1.1,0.9-2.1,1.9-3.1,2.9c-0.9,1-1.7,2.1-2.3,3.2c-0.6,1.2-0.9,2.5-0.9,4.1
						v3.2H127.6z M133.4,146.3c0,3.4-1.7,5-5,5c-3.5,0-5.3-1.7-5.3-5c0-3.4,1.8-5,5.3-5C131.8,141.2,133.4,142.9,133.4,146.3z"/>
					<path class="st3" d="M128.4,152.5c-4.1,0-6.4-2.2-6.4-6.2c0-4,2.3-6.2,6.4-6.2c4,0,6.2,2.2,6.2,6.2
						C134.6,150.3,132.4,152.5,128.4,152.5z M128.4,142.4c-2.9,0-4.1,1.2-4.1,3.9s1.2,3.9,4.1,3.9c2.7,0,3.9-1.2,3.9-3.9
						S131.1,142.4,128.4,142.4z M130.7,136.2h-3.9l-0.3-0.7c-0.6-1.4-1-3.3-1-5.7c0-1.7,0.2-3.2,0.7-4.5c0.5-1.3,1.1-2.5,1.8-3.6
						c0.7-1,1.5-2.1,2.3-3c0.8-0.9,1.5-1.8,2.1-2.8c0.6-0.9,1.1-2,1.5-3.1c0.4-1.1,0.6-2.3,0.6-3.7c0-1.9-0.4-3.4-1.3-4.4
						c-0.8-1-2.5-1.5-4.9-1.5c-0.6,0-1.3,0.1-2,0.4c-0.6,0.2-0.8,0.5-0.9,0.7v0.1c0.3,0.3,0.4,0.7,0.4,1.1c0,3.2-1.6,5-4.5,5
						c-1.4,0-3.8-0.7-3.8-5c0-1.4,0.3-2.7,0.9-3.8c0.6-1.1,1.4-2,2.5-2.7c1-0.7,2.2-1.2,3.6-1.5c1.3-0.3,2.7-0.5,4.2-0.5
						c2.1,0,4.1,0.2,5.8,0.7c1.8,0.5,3.4,1.3,4.7,2.3c1.3,1,2.4,2.3,3.2,3.9c0.7,1.5,1.1,3.3,1.1,5.2c0,2.3-0.3,4.2-1,5.9
						c-0.7,1.6-1.5,3-2.5,4.3c-1,1.2-2.1,2.3-3.2,3.3c-1.1,0.9-2.1,1.8-3,2.8c-0.9,0.9-1.6,1.9-2.2,3c-0.5,1-0.8,2.2-0.8,3.5V136.2z
						 M128.4,133.9L128.4,133.9l0.1-2c0-1.7,0.4-3.3,1.1-4.6c0.7-1.3,1.5-2.4,2.5-3.5c1-1,2-2,3.2-2.9c1-0.9,2-1.9,2.9-3
						c0.9-1.1,1.6-2.3,2.2-3.7c0.6-1.4,0.8-3,0.8-5c0-1.6-0.3-3-0.9-4.2c-0.6-1.2-1.4-2.2-2.5-3c-1.1-0.8-2.4-1.5-3.9-1.9
						c-1.5-0.4-3.3-0.7-5.2-0.7c-1.3,0-2.5,0.1-3.6,0.4c-1.1,0.2-2,0.6-2.8,1.2c-0.8,0.5-1.3,1.2-1.8,1.9c-0.4,0.8-0.6,1.7-0.6,2.7
						c0,2.7,1,2.7,1.5,2.7c1,0,2.1-0.2,2.2-2.5c-0.2-0.3-0.4-0.7-0.4-1.1v-0.7l0.1-0.2c0.4-1.1,1.2-1.9,2.4-2.3
						c1-0.3,1.9-0.5,2.8-0.5c3.2,0,5.4,0.7,6.7,2.3c1.2,1.5,1.9,3.5,1.9,5.9c0,1.7-0.2,3.2-0.7,4.5c-0.5,1.3-1.1,2.5-1.8,3.5
						c-0.7,1-1.5,2.1-2.3,3c-0.8,0.9-1.5,1.8-2.1,2.8c-0.6,0.9-1.1,2-1.5,3.1c-0.4,1.1-0.6,2.3-0.6,3.8
						C127.9,131.5,128,132.8,128.4,133.9z"/>
				</g>
			</g>
		</g>
	</g>
</g>
</svg>
