<?xml version="1.0" encoding="utf-8"?>
<!-- Generator: Adobe Illustrator 20.0.0, SVG Export Plug-In . SVG Version: 6.00 Build 0)  -->
<!DOCTYPE svg PUBLIC "-//W3C//DTD SVG 1.1//EN" "http://www.w3.org/Graphics/SVG/1.1/DTD/svg11.dtd">
<svg version="1.1" xmlns="http://www.w3.org/2000/svg" xmlns:xlink="http://www.w3.org/1999/xlink" x="0px" y="0px"
	 viewBox="0 0 250 250" style="enable-background:new 0 0 250 250;" xml:space="preserve">
<style type="text/css">
	.st0{fill:#FF9900;}
	.st1{fill:#282A2F;}
	.st2{fill:#FFFFFF;stroke:#FF9900;stroke-miterlimit:10;}
	.st3{fill:#33CC99;}
	.st4{font-family:'Futura-Bold';}
	.st5{font-size:18px;}
	.st6{fill:#282A2F;stroke:#FF9900;stroke-width:3;stroke-miterlimit:10;}
	.st7{fill:#33CC99;stroke:#33CC99;stroke-width:3;stroke-miterlimit:10;}
</style>
<g id="Layer_1">
</g>
<g id="Dictionary">
	<g>
		<path class="st0" d="M22.4,57.1v128.6h172.6v-0.2V57.1H22.4z M189.4,180H28.1V62.8h161.3V180z"/>
		<path class="st0" d="M79.4,108.7c-1.3,5-1.8,9.9-1.5,14.9c-0.9,17.4,7.7,34.7,23.9,44.1c7.5,4.4,15.8,6.4,23.9,6.4v-53.3l5.5,3.9
			v46.5c26.4,0,47.8-21.3,47.8-47.8c0-0.7,0-1.7-0.2-2.4c1.1-16.2-6.1-32.3-20.2-42.2c-8.3-5.9-17.8-8.6-27.4-8.6
			c-9.6,0-19.1,2.9-27.2,8.4l-4.2-2.9H39.1v5.5h59l1.3,0.9c-2.8,2.4-5.3,5.3-7.5,8.4l4.2,2.9L93,98l-6.6-4.6
			c-2.2,3.1-3.9,6.4-5.3,9.7l-5.1-3.7H39.1v5.5h35.1L79.4,108.7z M104.2,85.4l9.6,6.6l3.1-4.6l-7.9-5.5c6.6-4,14.3-6.2,22.2-6.2l0,0
			l0,0l0,0c8.6,0,17.1,2.6,24.2,7.7c19.1,13.4,23.7,39.7,10.3,58.8c-6.8,9.7-17.4,16.2-29,17.6v-44.6L99.9,89.4
			C101.2,87.9,102.7,86.7,104.2,85.4z M84.1,112l7.5,5.3l3.1-4.6l-9.2-6.4c0.6-1.8,1.3-3.5,2.2-5.1l32,22.4v38.9
			c-6.8-0.9-13-3.3-18.7-7.3C87.1,145.4,80.8,128.2,84.1,112z"/>
		<rect x="39.1" y="68.3" class="st0" width="36.7" height="5.5"/>
		<rect x="39.1" y="92.2" class="st0" width="20.2" height="5.5"/>
		<rect x="39.1" y="145.4" class="st0" width="33.1" height="5.5"/>
	</g>
	<g>
		<polygon class="st1" points="91.5,70.5 89.5,72.3 91.5,75 91.5,230.5 216.6,231.3 216.5,70.5 		"/>
		<polygon class="st2" points="79.5,77.5 79,231.5 212.4,234.2 213.5,73 89,72.9 		"/>
		<polygon class="st2" points="77.3,78.5 77,232.5 210.4,234.5 211.5,75 84.1,75.2 		"/>
		<polygon class="st2" points="75,79.5 75,233.5 208.4,235.5 209.5,77 79.6,77.2 		"/>
		<polygon class="st2" points="75,79.5 73,234.5 206.4,236.4 207.5,79 		"/>
		<polygon class="st1" points="72.5,79.5 91.5,70.5 94,70.5 75.2,79.5 		"/>
		<polygon class="st1" points="72.5,79.5 72.5,239.5 205,237.4 205.5,79.5 		"/>
	</g>
	<text transform="matrix(1 0 0 1 99.2025 142.1389)"><tspan x="0" y="0" class="st3 st4 st5">A Visual</tspan><tspan x="-9.5" y="21.6" class="st3 st4 st5">Dictionary</tspan></text>
</g>
</svg>
